# xmcd CD database file
#
# Track frame offsets:
#	225
#	14728
#	36550
#	55991
#	74146
#	92441
#	105622
#	118854
#	138273
#	162379
#	178973
#	197478
#	212024
#	229028
#	243163
#	266922
#
# Disc length: 3782 seconds
#
# Revision: 0
# Processed by: cddbd v1.5.1PL0 Copyright (c) Steve Scherf et al.
# Submitted via: CDex 1.51
#
DISCID=f30ec310
DTITLE=Rod Mason - That Lucky Old Sun
DYEAR=2004
DGENRE=Jazz
TTITLE0=Clarinet Marmalade
TTITLE1=That Lucky Old Sun
TTITLE2=Dans Ler Rues D'Antibes
TTITLE3=The Glory Of Love
TTITLE4=Dusky Stevedore
TTITLE5=Muggles
TTITLE6=Ace In The Hole
TTITLE7=The World Is Waiting For The Sunrise
TTITLE8=Back O'Town Blues
TTITLE9=Gatemouth
TTITLE10=Buddy Bolden's Blues
TTITLE11=Doctor Jazz
TTITLE12=Red River Valley
TTITLE13=He's A Son Of The South
TTITLE14=April Showers
TTITLE15=Sweet Sue, Jusrt You
EXTD=YEAR: 2004
EXTT0=
EXTT1=
EXTT2=
EXTT3=
EXTT4=
EXTT5=
EXTT6=
EXTT7=
EXTT8=
EXTT9=
EXTT10=
EXTT11=
EXTT12=
EXTT13=
EXTT14=
EXTT15=
PLAYORDER=
